<svg id="Capa_1" data-name="Capa 1" xmlns="http://www.w3.org/2000/svg" viewBox="0 0 283.46 283.46"><title>Innovation light</title><path d="M141.73,79.89a61.87,61.87,0,0,1,30.93,115.44v18.56a10.31,10.31,0,0,1-10.31,10.3H121.12a10.3,10.3,0,0,1-10.31-10.3V195.33A61.87,61.87,0,0,1,141.73,79.89M162.35,234.5v10.31A10.32,10.32,0,0,1,152,255.12H131.42a10.31,10.31,0,0,1-10.3-10.31V234.5h41.23m61.84-103.08h30.93V152H224.19V131.42m-195.84,0H59.27V152H28.35V131.42M152,28.35V59.27H131.42V28.35H152M68.75,54.12l22,22.05L76.07,90.71,54.12,68.86,68.75,54.12m124,21.95,21.85-21.95,14.74,14.74-22,21.85Z" style="fill:#e9e6da;stroke:#fff;stroke-miterlimit:10;stroke-width:0.513660898445469px"/></svg>