<svg id="Capa_1" data-name="Capa 1" xmlns="http://www.w3.org/2000/svg" viewBox="0 0 283.46 283.46"><title>Icons</title><path d="M236.78,46.68A134.52,134.52,0,0,0,25.13,209.05a20.18,20.18,0,1,0,35-20.18,94.27,94.27,0,1,1,163.28,0,20.19,20.19,0,0,0,35,20.19A134.18,134.18,0,0,0,236.78,46.68ZM227.69,65.2a12.62,12.62,0,0,1-17.82.94,101.56,101.56,0,0,0-136.28,0A12.61,12.61,0,1,1,56.71,47.39a126.8,126.8,0,0,1,170,0A12.62,12.62,0,0,1,227.69,65.2Z" style="fill:#e9e6da"/><path d="M125.71,225.76a43.19,43.19,0,0,1-32.5,41.62,136.38,136.38,0,0,0,94.07,1.24c-.47,0-.94,0-1.42,0a43.13,43.13,0,0,1-42.92-42.92h0l.46-45s0-34.94,26.87-43.89c0,0-17.91,26.87-17.91,44.79,62.7,6.27,62.7-79.73,62.7-79.73s-79.72-9-86.89,45.69c-10.75-34.94-65.39-26.88-65.39-26.88s1.79,69.87,52.85,59.12c-3.58-26-17-33.14-17-33.14,25.08,0,26.87,30.46,26.87,30.46l.23,48.6Z" style="fill:#e9e6da"/></svg>