<svg id="hero-logo" xmlns="http://www.w3.org/2000/svg" viewBox="0 0 283.46 283.46" onclick="scrollToHero()">
  <title>Smart Plant Logo</title>
  <path d="M235.89,74A133.26,133.26,0,0,0,26.22,234.87a20,20,0,1,0,34.64-20,93.39,93.39,0,1,1,161.75,0,20,20,0,1,0,34.64,20A132.91,132.91,0,0,0,235.89,74Zm-9,18.34a12.5,12.5,0,0,1-17.66.93,100.62,100.62,0,0,0-135,0A12.5,12.5,0,1,1,57.51,74.71a125.62,125.62,0,0,1,168.45,0A12.51,12.51,0,0,1,226.89,92.36Z" />
  <path d="M128.87,178.57C118.22,144,64.09,152,64.09,152s1.77,69.21,52.36,58.57c-3.55-25.74-16.87-32.84-16.87-32.84,24.85,0,26.63,30.17,26.63,30.17v40.82H144V211.4s0-34.61,26.62-43.48c0,0-17.75,26.62-17.75,44.37,62.12,6.21,62.12-79,62.12-79S136,124.44,128.87,178.57Z" />
</svg>
